<?xml version="1.0" encoding="utf-8"?>
<!-- Generator: Adobe Illustrator 25.2.3, SVG Export Plug-In . SVG Version: 6.00 Build 0)  -->
<svg version="1.1" id="圖層_1" xmlns="http://www.w3.org/2000/svg" xmlns:xlink="http://www.w3.org/1999/xlink" x="0px" y="0px"
	 viewBox="0 0 2408 2071" style="enable-background:new 0 0 2408 2071;" xml:space="preserve">
<style type="text/css">
	.st0{fill:#FFFFFF;}
</style>
<g>
	<g>
		<path id="SVGID_1_" class="st0" d="M1747.2,601c0,94.4-0.2,188.8,0.2,283.2c0.1,18.2-5.4,32.9-18.6,45.9
			c-44.7,44-88.9,88.7-132.9,133.3c-13.5,13.7-29,19.9-48.3,19.7c-70-0.5-140-0.2-210-0.2c-19.1,0-20.6-1.5-20.6-21.1
			c0-14.5-0.1-28.9,0-43.4c0.1-16.9,2.4-19.2,19.9-19.3c8.1-0.1,16.3,0,24.4-0.1c15.8-0.1,18-2.3,18-18.1c0-86.7,0-173.4,0-260.1
			c0-20.8-0.3-41.6,0.1-62.3c0.2-11.7-5.1-16.3-16.3-16.3c-85.4,0.1-170.7,0.1-256.1-0.1c-13.5,0-16.7,7-16.7,18.9
			c0.2,107,0.1,214.1,0,321.1c0,11.7,4.6,17.7,17,17.2c9.9-0.5,19.9,0.1,29.8,0c11.1-0.1,16.8,5.1,16.8,16.3
			c0,17.2,0.1,34.3-0.1,51.5c-0.1,11-5.7,16.1-17,16.1c-74.1-0.2-148.1,0.6-222.2-0.8c-12.2-0.2-27.1-6.7-36-15.2
			c-47.3-45.3-93.1-92.1-139.2-138.5c-11.3-11.4-16.3-25.1-16.3-41.5c0.2-156.3,0.1-312.5,0.1-468.8c0-35,0.3-70-0.1-105
			c-0.2-15.8,4.8-29.3,15.7-40.3c46.5-46.8,93-93.5,139.8-139.9c10.3-10.2,23.1-14.9,37.9-14.9c72.7,0.2,145.4,0,218.1,0.1
			c15.6,0,19,3.4,19.1,19c0.1,14.9,0.2,29.8,0,44.7c-0.2,15.6-4.3,19.6-20.4,19.9c-8.1,0.1-16.3,0-24.4,0.1
			c-16.2,0.1-18.7,2.5-18.8,18.9c-0.2,52.8-0.2,105.7-0.2,158.5s0.1,105.7,0.2,158.5c0,18.1,2.3,20.5,20.2,20.5
			c83.1,0.1,166.2,0.1,249.3,0.1c17,0,19.4-2.5,19.4-19.8c0-106.1,0-212.3,0-318.4c0-16.9-1.5-18.2-18.9-18.3
			c-9,0-18.1-0.1-27.1-0.1c-10.9,0-16.7-4.6-16.4-16.3c0.4-17.2,0.4-34.3,0-51.5c-0.2-10.7,3.9-15.9,15-15.8
			c75.4,0.1,150.9-0.6,226.2,0.8c11.3,0.2,24.9,7,33.3,15.1c48.3,46.8,95.4,94.9,142.9,142.5c10.6,10.7,13.1,24.2,13,38.6
			C1747.2,410.4,1747.2,505.7,1747.2,601z M1463,600c0,126.4,0,252.9,0,379.3c0,17.5,2.2,19.7,19.4,19.7c14.9,0,29.8-0.5,44.7,0.2
			c9.8,0.4,17-2.5,23.9-9.6c33.8-34.5,68.4-68.2,101.8-103.1c5.8-6.1,10.4-16.2,10.4-24.5c0.6-174.3,0.4-348.6,0.7-522.9
			c0-10.9-3.5-18.7-11.1-26.2c-23.6-23-49-44.7-69.4-70.3c-26.7-33.5-58.2-47.4-100.6-41.2c-18.3,2.7-19.8,1.7-19.8,20.7
			C1463,348.1,1463,474,1463,600z M806.9,600.6c0,88-0.1,176.1,0.3,264.1c0,6.4,2.6,14.5,7,19c35.5,36.6,71.6,72.7,107.7,108.6
			c3.2,3.2,8.3,6.2,12.6,6.4c19.4,0.7,38.8,0.3,58.2,0.3c9,0,13.1-4.7,13.2-13.5c0-4.1,0.2-8.1,0.2-12.2
			c0.1-228.2,0.1-456.4,0.2-684.5c0-23.9-0.2-47.9-0.1-71.8c0.1-10.8-4.6-15.5-15.5-15.3c-17.6,0.4-35.2-0.5-52.8,0.5
			c-6,0.3-13.2,3.3-17.5,7.5c-35.1,34.4-69.6,69.6-104.6,104.2c-6.6,6.5-9.2,13.3-9.2,22.6C807,424.5,806.9,512.5,806.9,600.6z"/>
	</g>
</g>
<g>
	<path class="st0" d="M428.5,1575.4v27.7h184.7v54.4H428.5v66.6h-65.4v-66.6H179v-54.4h184.1v-27.7H146.8v-57.1h216.3V1393H160.7
		v-53.8h474.2v53.8H428.5v125.3h221.8v57.1H428.5z M267.7,1295.3H150.1v-57.7h117.6v-31.1H332v31.1h56.6v57.7H332v31.1h-64.3V1295.3
		z M290.4,1402.9v23.8h51v55.5h-51v26.6h-61v-26.6h-69.3v-55.5h69.3v-23.8H290.4z M459.6,1295.3h-53.2v-57.7h53.2v-31.1h64.3v31.1
		h120.4v57.7H523.9v31.1h-64.3L459.6,1295.3L459.6,1295.3z M504,1508.8v-29.4h-53.8V1424H504v-21.1h61v21.1h66.6v55.5H565v29.4
		L504,1508.8L504,1508.8z"/>
	<path class="st0" d="M1115.7,1593.1h-87.6l54.9,11.6c-8.9,18.9-18.3,36.6-26.6,52.1h140.9v56H708.6v-56h135.9
		c-5-15.5-13.9-34.9-22.7-49.9l43.8-13.9h-81v-144.2c-18.9,13.3-38.3,23.8-58.2,33.8c-8.9-14.4-27.2-36.6-40.5-48.8
		c32.2-13.3,65.4-34.4,94.3-59.3c-15.5-15.5-38.8-33.8-58.8-46.6l35.5-36.6c21.1,12.2,46.6,29.4,62.1,44.9
		c16.6-18.3,30.5-37.2,42.2-57.1H728.6V1226h164.2l11.1-2.8l43.8,22.2c-14.4,39.9-34.9,76-59.9,108.1h133.1
		c-29.9-37.7-53.8-81.5-73.2-128.1l58.8-17.7c7.8,19.4,17.7,38.8,28.3,56.6c21.1-16.6,42.7-36.6,56.6-53.2l49.9,35.5
		c-24.4,20.5-53.2,42.2-77.1,59.3c7.8,10,16.1,18.9,25,28.3c23.3-17.7,48.3-40.5,64.3-58.8l48.3,34.4c-23.3,20.5-51,41.6-74.9,58.8
		c28.3,22.7,59.9,41.6,94.3,54.9c-15.5,12.8-34.9,38.8-44.9,55.5c-21.6-10-41.6-21.1-60.5-34.4v148.5H1115.7z M858.4,1387.4
		c-18.9,20-39.4,37.2-61,52.7h311.7c-21.1-15.5-39.9-32.2-58.2-51v19.4H858.4V1387.4z M1044.7,1492.2h-193v48.8h193V1492.2z
		 M990.4,1656.9c10.5-19.4,22.2-44.9,28.8-63.8H884.4c11.6,17.7,21.6,39.4,26.1,54.4l-27.7,9.4H990.4z"/>
	<path class="st0" d="M1423,1399.6c-7.2,81.5-21.6,148.1-43.3,201.3c51,43.8,119.8,53.2,201.3,53.8c32.2,0,147,0,184.7-1.7
		c-9.4,13.9-19.4,42.7-23.3,60.5h-163.1c-93.2,0-169.2-12.2-226.3-59.3c-17.2,28.8-37.7,51.6-61,69.3c-9.4-12.8-33.8-35.5-47.7-43.3
		c26.6-18.3,48.3-42.7,66-73.2c-18.9-28.8-35.5-63.8-48.8-107.6l48.3-16.1c7.2,25,16.6,46.6,27.2,64.3c10-28.3,16.6-61,21.6-98.2
		h-88.7c22.2-41,50.5-100.4,73.8-155.8h-82.1v-57.1h170.8c-21.1,49.9-47.1,108.1-70.4,155.8h13.3l11.1-1.1L1423,1399.6z
		 M1539.4,1299.2h-94.3v-49.9h94.3v-41.6h62.1v41.6H1723v74.3h30.5v50.5H1723v73.8h-121.5v26.6h127v47.7h-127v27.2h145.3v52.1
		h-145.3v37.7h-62.1v-37.7h-122.6v-52.1h122.6v-27.2H1439v-47.7h100.4v-26.6h-97.1V1398h97.1v-23.8h-124.8v-50.5h124.8V1299.2z
		 M1601.5,1299.2v24.4h63.8v-24.4H1601.5z M1665.3,1374.1h-63.8v23.8h63.8V1374.1z"/>
	<path class="st0" d="M2022.5,1349.7h-216.3v-52.1h91.5c-8.3-21.1-22.7-48.8-35.5-69.9l51.6-23.8c15,22.7,32.2,53.2,40.5,73.8
		l-37.2,20h105.4V1349.7z M1999.8,1387.4c54.4-29.9,61-68.2,61-104.3v-59.3h186.9v120.9c0,16.1,1.1,22.7,7.8,22.7h22.2
		c7.8,0,20-1.7,27.2-3.9c1.1,16.6,2.8,39.4,4.4,54.9c-7.8,3.3-20,3.9-31.1,3.9h-28.8c-52.1,0-62.1-23.3-62.1-78.2v-59.3h-66.6v0.6
		c0,53.8-15.5,115.9-84.9,153.1c-6.1-10.5-23.3-29.9-36-41v27.2h-169.7v-49.9h169.7L1999.8,1387.4L1999.8,1387.4z M2000.9,1498.9
		h-170.8V1449h170.8V1498.9z M2297.6,1460.6c-18.3,68.2-48.8,120.9-88.7,161.4c33.8,17.7,72.1,31.6,114.8,39.9
		c-13.9,13.3-31.6,41.6-40.5,59.3c-48.8-11.6-91.5-29.9-128.7-54.4c-37.7,24.4-81,43.3-128.7,56c-5.5-13.9-15.5-33.8-25.5-49.4v20
		h-113.7v23.3h-56v-191.3h169.7v137c37.2-8.9,71.5-21.6,102-39.4c-28.8-28.8-53.2-63.8-72.7-103.2l36-12.8H2014v-61.6h231.3
		l11.1-2.8L2297.6,1460.6z M1943.2,1578.2h-56.6v62.1h56.6V1578.2z M2089.1,1507.2c16.1,29.9,38.3,56,65.4,78.8
		c24.4-22.2,44.4-48.3,59.3-78.8H2089.1z"/>
</g>
<g>
	<path class="st0" d="M132.4,1804.3h27.7l10.8,66.2c2,14.3,4.2,28.8,6.2,43.3h0.7c2.8-14.5,5.7-29.2,8.6-43.3l15.8-66.2h23.1
		l15.8,66.2c2.9,13.9,5.7,28.6,8.6,43.3h0.9c2-14.7,4-29.2,6.1-43.3l10.6-66.2h25.9L268.1,1940h-33.7l-15.2-67.1
		c-2.2-10.6-4.2-21.1-5.9-31.4h-0.7c-1.8,10.3-3.7,20.7-5.9,31.4l-14.9,67.1h-33.2L132.4,1804.3z"/>
	<path class="st0" d="M303.5,1912.2c0-22,17.8-33.6,59-38c-0.4-10.1-4.8-17.8-17.4-17.8c-9.5,0-18.7,4.2-28.2,9.7l-9.7-17.8
		c12.1-7.5,26.8-13.6,42.9-13.6c26,0,39.4,15.6,39.4,45.3v60h-22l-2-11H365c-9,7.7-19.3,13.6-31,13.6
		C315.6,1942.6,303.5,1929.6,303.5,1912.2z M362.5,1911.4v-20.7c-24.9,3.3-33.4,10.1-33.4,19.3c0,8.1,5.7,11.6,13.6,11.6
		C350.4,1921.5,356.1,1917.9,362.5,1911.4z"/>
	<path class="st0" d="M417,1911.2v-117.5h26.8v118.8c0,6.1,2.9,8.1,5.5,8.1c1.1,0,1.8,0,3.7-0.4l3.3,20c-3.1,1.3-7.7,2.4-13.9,2.4
		C423.6,1942.6,417,1930.3,417,1911.2z"/>
	<path class="st0" d="M468.9,1888.9c0-33.6,20.9-54.1,43.1-54.1c11.6,0,18.7,4.4,26,11.2l-1.1-16.1v-36.1h27V1940H542l-2.2-10.6
		h-0.5c-7.5,7.3-17.8,13.2-28.4,13.2C485.4,1942.6,468.9,1922.4,468.9,1888.9z M536.9,1909.8v-45.1c-6.2-5.7-12.7-7.7-19.1-7.7
		c-11.6,0-21.3,11-21.3,31.5c0,21.3,7.7,31.9,21.3,31.9C525,1920.4,531,1917.5,536.9,1909.8z"/>
	<path class="st0" d="M586.4,1888.9c0-33.4,23.3-54.1,47.9-54.1c28.2,0,42.9,20.7,42.9,49.1c0,5-0.5,9.9-1.3,12.3h-63.3
		c2.2,16.9,13.2,25.7,28.4,25.7c8.4,0,15.8-2.6,23.1-7.2l9.2,16.5c-10.1,7-23.1,11.4-35.9,11.4
		C608.8,1942.6,586.4,1922.6,586.4,1888.9z M654.1,1878.4c0-13.9-6.2-22.7-19.4-22.7c-10.8,0-20.4,7.7-22.4,22.7H654.1z"/>
	<path class="st0" d="M699.4,1837.3h22l1.8,13.6h0.7c9-8.8,19.4-16.1,33.4-16.1c22.2,0,31.7,15.4,31.7,41.3v64h-27v-60.7
		c0-15.8-4.4-21.5-14.5-21.5c-8.4,0-13.8,4-21.5,11.6v70.6h-26.8v-102.8H699.4z"/>
	<path class="st0" d="M854,1872.7c0-44.7,28.8-71,63.1-71c17.2,0,31,8.3,39.8,17.4l-14.3,17.2c-6.8-6.6-14.7-11.4-24.9-11.4
		c-20.5,0-35.9,17.6-35.9,46.8c0,29.5,13.9,47.3,35.4,47.3c11.6,0,20.7-5.5,28.1-13.4l14.3,16.9c-11.2,13-25.7,20-43.3,20
		C881.9,1942.6,854,1918,854,1872.7z"/>
	<path class="st0" d="M972.6,1888.9c0-34.3,23.7-54.1,49.3-54.1c25.7,0,49.3,19.8,49.3,54.1c0,33.9-23.7,53.7-49.3,53.7
		C996.3,1942.6,972.6,1922.8,972.6,1888.9z M1043.8,1888.9c0-19.4-7.9-32.1-21.8-32.1c-13.9,0-21.8,12.7-21.8,32.1
		c0,19.3,7.9,31.7,21.8,31.7S1043.8,1908.1,1043.8,1888.9z"/>
	<path class="st0" d="M1093.8,1837.3h22l1.8,13.6h0.7c9-8.8,19.4-16.1,33.4-16.1c22.2,0,31.7,15.4,31.7,41.3v64h-27v-60.7
		c0-15.8-4.4-21.5-14.5-21.5c-8.4,0-13.8,4-21.5,11.6v70.6h-26.8v-102.8H1093.8z"/>
	<path class="st0" d="M1201.7,1928.1l12.3-16.9c9.2,7.2,18,11.2,27.5,11.2c10.3,0,14.9-4.4,14.9-10.8c0-7.7-10.6-11.2-21.5-15.4
		c-13-5-28.1-12.8-28.1-29.9c0-18.5,15-31.5,38.1-31.5c15,0,26.4,6.2,35,12.7l-12.1,16.3c-7.3-5.1-14.5-8.8-22.2-8.8
		c-9.2,0-13.6,4-13.6,9.9c0,7.5,10.1,10.3,20.9,14.3c13.6,5.1,28.6,11.9,28.6,31c0,18-14.1,32.5-40.9,32.5
		C1227,1942.6,1211.8,1936.6,1201.7,1928.1z"/>
	<path class="st0" d="M1301.8,1904.1v-45.5h-14.5v-20l15.8-1.3l3.1-27.5h22.6v27.5h25.3v21.3h-25.3v45.5c0,11.7,4.8,17.2,13.9,17.2
		c3.3,0,7.3-1.1,10.1-2.2l4.4,19.6c-5.5,1.8-12.7,3.9-21.6,3.9C1311.1,1942.6,1301.8,1927.2,1301.8,1904.1z"/>
	<path class="st0" d="M1375,1837.3h22l1.8,18.2h0.7c7.5-13.4,18.5-20.7,29.2-20.7c5.7,0,9,0.9,12.1,2.2l-4.8,23.3
		c-3.5-1.1-6.4-1.7-10.6-1.7c-8.1,0-17.8,5.3-23.7,20.2v61.2H1375V1837.3z"/>
	<path class="st0" d="M1453.8,1901.5v-64.2h27v60.7c0,16,4.4,21.5,14.3,21.5c8.4,0,13.9-3.7,20.9-12.8v-69.3h27V1940h-22l-2-14.7
		h-0.7c-8.8,10.5-18.7,17.2-32.8,17.2C1463.4,1942.6,1453.8,1927.2,1453.8,1901.5z"/>
	<path class="st0" d="M1565.3,1888.9c0-34.3,24.6-54.1,52.4-54.1c12.7,0,22.4,5,29.9,11.4l-12.8,17.4c-5.1-4.4-9.9-6.8-15.8-6.8
		c-15.6,0-26.2,12.7-26.2,32.1c0,19.3,10.6,31.7,25.5,31.7c7.3,0,14.3-3.5,20-8.3l10.6,17.8c-9.7,8.6-22.2,12.5-33.6,12.5
		C1587,1942.6,1565.3,1922.8,1565.3,1888.9z"/>
	<path class="st0" d="M1670,1904.1v-45.5h-14.5v-20l15.8-1.3l3.1-27.5h22.6v27.5h25.3v21.3H1697v45.5c0,11.7,4.8,17.2,13.9,17.2
		c3.3,0,7.3-1.1,10.1-2.2l4.4,19.6c-5.5,1.8-12.7,3.9-21.6,3.9C1679.4,1942.6,1670,1927.2,1670,1904.1z"/>
	<path class="st0" d="M1740.6,1806.2c0-8.8,6.8-14.7,16.1-14.7c9.2,0,16,5.9,16,14.7c0,8.4-6.8,14.7-16,14.7
		C1747.4,1820.8,1740.6,1814.6,1740.6,1806.2z M1743.2,1837.3h26.8V1940h-26.8V1837.3z"/>
	<path class="st0" d="M1792.5,1888.9c0-34.3,23.7-54.1,49.3-54.1c25.7,0,49.3,19.8,49.3,54.1c0,33.9-23.7,53.7-49.3,53.7
		S1792.5,1922.8,1792.5,1888.9z M1863.7,1888.9c0-19.4-7.9-32.1-21.8-32.1s-21.8,12.7-21.8,32.1c0,19.3,7.9,31.7,21.8,31.7
		C1855.8,1920.6,1863.7,1908.1,1863.7,1888.9z"/>
	<path class="st0" d="M1913.7,1837.3h22l1.8,13.6h0.7c9-8.8,19.4-16.1,33.4-16.1c22.2,0,31.7,15.4,31.7,41.3v64h-27v-60.7
		c0-15.8-4.4-21.5-14.5-21.5c-8.4,0-13.8,4-21.5,11.6v70.6h-26.8v-102.8H1913.7z"/>
	<path class="st0" d="M2068.3,1872.7c0-44.7,28.8-71,63.1-71c17.2,0,31,8.3,39.8,17.4l-14.3,17.2c-6.8-6.6-14.7-11.4-24.9-11.4
		c-20.5,0-35.9,17.6-35.9,46.8c0,29.5,13.9,47.3,35.4,47.3c11.6,0,20.7-5.5,28.1-13.4l14.3,16.9c-11.2,13-25.7,20-43.3,20
		C2096.2,1942.6,2068.3,1918,2068.3,1872.7z"/>
	<path class="st0" d="M2187,1888.9c0-34.3,23.7-54.1,49.3-54.1c25.7,0,49.3,19.8,49.3,54.1c0,33.9-23.7,53.7-49.3,53.7
		C2210.6,1942.6,2187,1922.8,2187,1888.9z M2258.1,1888.9c0-19.4-7.9-32.1-21.8-32.1c-13.9,0-21.8,12.7-21.8,32.1
		c0,19.3,7.9,31.7,21.8,31.7C2250.2,1920.6,2258.1,1908.1,2258.1,1888.9z"/>
	<path class="st0" d="M2304.5,1925c0-9.9,7.2-17.6,16.7-17.6c9.7,0,16.9,7.7,16.9,17.6s-7.2,17.6-16.9,17.6
		C2311.7,1942.6,2304.5,1934.9,2304.5,1925z"/>
</g>
</svg>
