<?xml version="1.0" encoding="utf-8"?>
<!-- Generator: Adobe Illustrator 26.4.1, SVG Export Plug-In . SVG Version: 6.00 Build 0)  -->
<svg version="1.1" id="圖層_1" xmlns="http://www.w3.org/2000/svg" xmlns:xlink="http://www.w3.org/1999/xlink" x="0px" y="0px"
	 viewBox="0 0 3314.7 981.3" style="enable-background:new 0 0 3314.7 981.3;" xml:space="preserve">
<style type="text/css">
	.st0{fill:#231815;}
</style>
<g>
	<defs>
		<path id="SVGID_1_" d="M893.3,491c0,70.4-0.1,140.7,0.1,211.1c0,13.6-4,24.5-13.9,34.2c-33.3,32.8-66.2,66.1-99.1,99.4
			c-10,10.2-21.6,14.8-36,14.7c-52.2-0.4-104.3-0.2-156.5-0.2c-14.3,0-15.3-1.1-15.4-15.7c0-10.8,0-21.5,0-32.3
			c0-12.6,1.8-14.3,14.8-14.4c6.1,0,12.1,0,18.2,0c11.8-0.1,13.4-1.7,13.4-13.5c0-64.6,0-129.3,0-193.9c0-15.5-0.2-31,0.1-46.5
			c0.2-8.7-3.8-12.2-12.1-12.2c-63.6,0-127.2,0.1-190.9-0.1c-10,0-12.5,5.3-12.4,14.1c0.1,79.8,0.1,159.5,0,239.3
			c0,8.7,3.4,13.2,12.6,12.8c7.4-0.3,14.8,0,22.2,0c8.3-0.1,12.5,3.8,12.5,12.2c0,12.8,0.1,25.6-0.1,38.4c-0.1,8.2-4.2,12-12.7,12
			c-55.2-0.1-110.4,0.5-165.6-0.6c-9.1-0.2-20.2-5-26.8-11.3c-35.2-33.8-69.4-68.7-103.8-103.3c-8.4-8.5-12.1-18.7-12.1-30.9
			c0.2-116.5,0.1-232.9,0.1-349.4c0-26.1,0.2-52.2-0.1-78.2c-0.1-11.8,3.6-21.8,11.7-30.1c34.6-34.9,69.3-69.7,104.2-104.3
			c7.7-7.6,17.3-11.1,28.3-11.1c54.2,0.1,108.4,0,162.6,0.1c11.6,0,14.1,2.5,14.2,14.2c0.1,11.1,0.1,22.2,0,33.3
			c-0.1,11.6-3.2,14.6-15.2,14.8c-6.1,0.1-12.1,0-18.2,0.1c-12,0.1-13.9,1.8-14,14.1c-0.1,39.4-0.2,78.8-0.2,118.1
			c0,39.4,0,78.8,0.1,118.1c0,13.5,1.7,15.3,15,15.3c61.9,0.1,123.9,0.1,185.8,0.1c12.7,0,14.5-1.9,14.5-14.8
			c0-79.1,0-158.2,0-237.3c0-12.6-1.1-13.6-14.1-13.6c-6.7,0-13.5-0.1-20.2-0.1c-8.1,0-12.5-3.4-12.2-12.2c0.3-12.8,0.3-25.6,0-38.4
			c-0.2-7.9,2.9-11.8,11.2-11.8c56.2,0.1,112.4-0.4,168.6,0.6c8.4,0.1,18.6,5.2,24.8,11.3c36,34.9,71.1,70.7,106.5,106.2
			c7.9,8,9.7,18,9.7,28.8C893.3,348.9,893.3,419.9,893.3,491z M681.5,490.3c0,94.2,0,188.5,0,282.7c0,13,1.6,14.6,14.4,14.7
			c11.1,0,22.2-0.4,33.3,0.1c7.3,0.3,12.7-1.9,17.8-7.2c25.2-25.7,51-50.9,75.9-76.8c4.3-4.5,7.7-12.1,7.7-18.3
			c0.4-129.9,0.3-259.8,0.5-389.7c0-8.1-2.6-14-8.3-19.5c-17.6-17.1-36.5-33.3-51.7-52.4c-19.9-25-43.4-35.4-75-30.7
			c-13.6,2-14.8,1.3-14.8,15.4C681.5,302.5,681.5,396.4,681.5,490.3z M192.5,490.7c0,65.6-0.1,131.2,0.2,196.9
			c0,4.8,2,10.8,5.2,14.2c26.4,27.3,53.3,54.2,80.3,80.9c2.4,2.4,6.2,4.7,9.4,4.8c14.5,0.5,28.9,0.2,43.4,0.2c6.7,0,9.8-3.5,9.9-10
			c0-3,0.1-6.1,0.1-9.1c0.1-170.1,0.1-340.1,0.1-510.2c0-17.8-0.2-35.7,0-53.5c0.1-8.1-3.4-11.6-11.6-11.4
			c-13.1,0.3-26.3-0.4-39.4,0.4c-4.5,0.3-9.8,2.4-13,5.6C251,225,225.3,251.2,199.2,277c-4.9,4.9-6.9,9.9-6.9,16.8
			C192.6,359.5,192.5,425.1,192.5,490.7z"/>
	</defs>
	<use xlink:href="#SVGID_1_"  style="overflow:visible;fill:#231815;"/>
	<clipPath id="SVGID_00000042010934479749442580000005290773163699166093_">
		<use xlink:href="#SVGID_1_"  style="overflow:visible;"/>
	</clipPath>
</g>
<g>
	<path class="st0" d="M1331.8,485.7v27.7h184.7v54.4h-184.7v66.6h-65.4v-66.6h-184.1v-54.4h184.1v-27.7h-216.3v-57.1h216.3V303.2
		H1064v-53.8h474.2v53.8h-206.3v125.3h221.8v57.1H1331.8z M1171,205.6h-117.6v-57.7H1171v-31.1h64.3v31.1h56.6v57.7h-56.6v31.1H1171
		V205.6z M1193.7,313.2V337h51v55.5h-51v26.6h-61v-26.6h-69.3V337h69.3v-23.8H1193.7z M1362.9,205.6h-53.2v-57.7h53.2v-31.1h64.3
		v31.1h120.4v57.7h-120.4v31.1h-64.3V205.6z M1407.3,419.1v-29.4h-53.8v-55.5h53.8v-21.1h61v21.1h66.6v55.5h-66.6v29.4H1407.3z"/>
	<path class="st0" d="M2019,503.4h-87.6l54.9,11.6c-8.9,18.9-18.3,36.6-26.6,52.1h140.9v56h-488.6v-56h135.9
		c-5-15.5-13.9-34.9-22.7-49.9l43.8-13.9h-81V359.2c-18.9,13.3-38.3,23.8-58.2,33.8c-8.9-14.4-27.2-36.6-40.5-48.8
		c32.2-13.3,65.4-34.4,94.3-59.3c-15.5-15.5-38.8-33.8-58.8-46.6l35.5-36.6c21.1,12.2,46.6,29.4,62.1,44.9
		c16.6-18.3,30.5-37.2,42.2-57.1h-132.6v-53.2H1796l11.1-2.8l43.8,22.2c-14.4,39.9-34.9,76-59.9,108.1h133.1
		c-29.9-37.7-53.8-81.5-73.2-128.1l58.8-17.7c7.8,19.4,17.7,38.8,28.3,56.6c21.1-16.6,42.7-36.6,56.6-53.2l49.9,35.5
		c-24.4,20.5-53.2,42.2-77.1,59.3c7.8,10,16.1,18.9,25,28.3c23.3-17.7,48.3-40.5,64.3-58.8L2105,220c-23.3,20.5-51,41.6-74.9,58.8
		c28.3,22.7,59.9,41.6,94.3,54.9c-15.5,12.8-34.9,38.8-44.9,55.5c-21.6-10-41.6-21.1-60.5-34.4V503.4z M1761.7,297.7
		c-18.9,20-39.4,37.2-61,52.7h311.7c-21.1-15.5-39.9-32.2-58.2-51v19.4h-192.5V297.7z M1948,402.5h-193v48.8h193V402.5z
		 M1893.7,567.2c10.5-19.4,22.2-44.9,28.8-63.8h-134.8c11.6,17.7,21.6,39.4,26.1,54.4l-27.7,9.4H1893.7z"/>
	<path class="st0" d="M2326.3,309.9c-7.2,81.5-21.6,148.1-43.3,201.3c51,43.8,119.8,53.2,201.3,53.8c32.2,0,147,0,184.7-1.7
		c-9.4,13.9-19.4,42.7-23.3,60.5h-163.1c-93.2,0-169.2-12.2-226.3-59.3c-17.2,28.8-37.7,51.6-61,69.3c-9.4-12.8-33.8-35.5-47.7-43.3
		c26.6-18.3,48.3-42.7,66-73.2c-18.9-28.8-35.5-63.8-48.8-107.6l48.3-16.1c7.2,25,16.6,46.6,27.2,64.3c10-28.3,16.6-61,21.6-98.2
		h-88.7c22.2-41,50.5-100.4,73.8-155.8h-82.1v-57.1h170.8c-21.1,49.9-47.1,108.1-70.4,155.8h13.3l11.1-1.1L2326.3,309.9z
		 M2442.7,209.5h-94.3v-49.9h94.3V118h62.1v41.6h121.5v74.3h30.5v50.5h-30.5v73.8h-121.5v26.6h127v47.7h-127v27.2h145.3v52.1h-145.3
		v37.7h-62.1v-37.7h-122.6v-52.1h122.6v-27.2h-100.4v-47.7h100.4v-26.6h-97.1v-49.9h97.1v-23.8h-124.8v-50.5h124.8V209.5z
		 M2504.8,209.5v24.4h63.8v-24.4H2504.8z M2568.6,284.4h-63.8v23.8h63.8V284.4z"/>
	<path class="st0" d="M2925.8,259.9h-216.3v-52.1h91.5c-8.3-21.1-22.7-48.8-35.5-69.9l51.6-23.8c15,22.7,32.2,53.2,40.5,73.8
		l-37.2,20h105.4V259.9z M2903.1,297.7c54.4-29.9,61-68.2,61-104.3v-59.3H3151V255c0,16.1,1.1,22.7,7.8,22.7h22.2
		c7.8,0,20-1.7,27.2-3.9c1.1,16.6,2.8,39.4,4.4,54.9c-7.8,3.3-20,3.9-31.1,3.9h-28.8c-52.1,0-62.1-23.3-62.1-78.2v-59.3H3024v0.6
		c0,53.8-15.5,115.9-84.9,153.1c-6.1-10.5-23.3-29.9-36-41v27.2h-169.7v-49.9h169.7V297.7z M2904.2,409.1h-170.8v-49.9h170.8V409.1z
		 M3200.9,370.9c-18.3,68.2-48.8,120.9-88.7,161.4c33.8,17.7,72.1,31.6,114.8,39.9c-13.9,13.3-31.6,41.6-40.5,59.3
		c-48.8-11.6-91.5-29.9-128.7-54.4c-37.7,24.4-81,43.3-128.7,56c-5.5-13.9-15.5-33.8-25.5-49.4v20h-113.7v23.3h-56V435.8h169.7v137
		c37.2-8.9,71.5-21.6,102-39.4c-28.8-28.8-53.2-63.8-72.7-103.2l36-12.8h-51.6v-61.6h231.3l11.1-2.8L3200.9,370.9z M2846.5,488.4
		h-56.6v62.1h56.6V488.4z M2992.3,417.5c16.1,29.9,38.3,56,65.4,78.8c24.4-22.2,44.4-48.3,59.3-78.8H2992.3z"/>
</g>
<g>
	<path class="st0" d="M1026.8,714.6h27.7l10.8,66.2c2,14.3,4.2,28.8,6.2,43.3h0.7c2.8-14.5,5.7-29.2,8.6-43.3l15.8-66.2h23.1
		l15.8,66.2c2.9,13.9,5.7,28.6,8.6,43.3h0.9c2-14.7,4-29.2,6.1-43.3l10.6-66.2h25.9l-25.1,135.7h-33.7l-15.2-67.1
		c-2.2-10.6-4.2-21.1-5.9-31.4h-0.7c-1.8,10.3-3.7,20.7-5.9,31.4l-14.9,67.1H1053L1026.8,714.6z"/>
	<path class="st0" d="M1197.9,822.5c0-22,17.8-33.6,59-38c-0.4-10.1-4.8-17.8-17.4-17.8c-9.5,0-18.7,4.2-28.2,9.7l-9.7-17.8
		c12.1-7.5,26.8-13.6,42.9-13.6c26,0,39.4,15.6,39.4,45.3v60h-22l-2-11h-0.5c-9,7.7-19.3,13.6-31,13.6
		C1210,852.9,1197.9,839.9,1197.9,822.5z M1256.9,821.7V801c-24.9,3.3-33.4,10.1-33.4,19.3c0,8.1,5.7,11.6,13.6,11.6
		C1244.8,831.8,1250.5,828.1,1256.9,821.7z"/>
	<path class="st0" d="M1311.4,821.5V704h26.8v118.8c0,6.1,2.9,8.1,5.5,8.1c1.1,0,1.8,0,3.7-0.4l3.3,20c-3.1,1.3-7.7,2.4-13.9,2.4
		C1318,852.9,1311.4,840.6,1311.4,821.5z"/>
	<path class="st0" d="M1363.3,799.2c0-33.6,20.9-54.1,43.1-54.1c11.6,0,18.7,4.4,26,11.2l-1.1-16.1V704h27v146.3h-21.8l-2.2-10.6
		h-0.5c-7.5,7.3-17.8,13.2-28.4,13.2C1379.8,852.9,1363.3,832.7,1363.3,799.2z M1431.3,820.1V775c-6.2-5.7-12.7-7.7-19.1-7.7
		c-11.6,0-21.3,11-21.3,31.5c0,21.3,7.7,31.9,21.3,31.9C1419.4,830.7,1425.4,827.8,1431.3,820.1z"/>
	<path class="st0" d="M1480.8,799.2c0-33.4,23.3-54.1,47.9-54.1c28.2,0,42.9,20.7,42.9,49.1c0,5-0.5,9.9-1.3,12.3H1507
		c2.2,16.9,13.2,25.7,28.4,25.7c8.4,0,15.8-2.6,23.1-7.2l9.2,16.5c-10.1,7-23.1,11.4-35.9,11.4
		C1503.2,852.9,1480.8,832.9,1480.8,799.2z M1548.5,788.7c0-13.9-6.2-22.7-19.4-22.7c-10.8,0-20.4,7.7-22.4,22.7H1548.5z"/>
	<path class="st0" d="M1593.8,747.6h22l1.8,13.6h0.7c9-8.8,19.4-16.1,33.4-16.1c22.2,0,31.7,15.4,31.7,41.3v64h-27v-60.7
		c0-15.8-4.4-21.5-14.5-21.5c-8.4,0-13.8,4-21.5,11.6v70.6h-26.8V747.6z"/>
	<path class="st0" d="M1748.4,783c0-44.7,28.8-71,63.1-71c17.2,0,31,8.3,39.8,17.4l-14.3,17.2c-6.8-6.6-14.7-11.4-24.9-11.4
		c-20.5,0-35.9,17.6-35.9,46.8c0,29.5,13.9,47.3,35.4,47.3c11.6,0,20.7-5.5,28.1-13.4l14.3,16.9c-11.2,13-25.7,20-43.3,20
		C1776.2,852.9,1748.4,828.3,1748.4,783z"/>
	<path class="st0" d="M1867,799.2c0-34.3,23.7-54.1,49.3-54.1c25.7,0,49.3,19.8,49.3,54.1c0,33.9-23.7,53.7-49.3,53.7
		C1890.7,852.9,1867,833.1,1867,799.2z M1938.2,799.2c0-19.4-7.9-32.1-21.8-32.1c-13.9,0-21.8,12.7-21.8,32.1
		c0,19.3,7.9,31.7,21.8,31.7C1930.3,830.9,1938.2,818.4,1938.2,799.2z"/>
	<path class="st0" d="M1988.2,747.6h22l1.8,13.6h0.7c9-8.8,19.4-16.1,33.4-16.1c22.2,0,31.7,15.4,31.7,41.3v64h-27v-60.7
		c0-15.8-4.4-21.5-14.5-21.5c-8.4,0-13.8,4-21.5,11.6v70.6h-26.8V747.6z"/>
	<path class="st0" d="M2096.1,838.4l12.3-16.9c9.2,7.2,18,11.2,27.5,11.2c10.3,0,14.9-4.4,14.9-10.8c0-7.7-10.6-11.2-21.5-15.4
		c-13-5-28.1-12.8-28.1-29.9c0-18.5,15-31.5,38.1-31.5c15,0,26.4,6.2,35,12.7l-12.1,16.3c-7.3-5.1-14.5-8.8-22.2-8.8
		c-9.2,0-13.6,4-13.6,9.9c0,7.5,10.1,10.3,20.9,14.3c13.6,5.1,28.6,11.9,28.6,31c0,18-14.1,32.5-40.9,32.5
		C2121.4,852.9,2106.1,846.8,2096.1,838.4z"/>
	<path class="st0" d="M2196.2,814.4v-45.5h-14.5v-20l15.8-1.3l3.1-27.5h22.6v27.5h25.3v21.3h-25.3v45.5c0,11.7,4.8,17.2,13.9,17.2
		c3.3,0,7.3-1.1,10.1-2.2l4.4,19.6c-5.5,1.8-12.7,3.9-21.6,3.9C2205.5,852.9,2196.2,837.5,2196.2,814.4z"/>
	<path class="st0" d="M2269.4,747.6h22l1.8,18.2h0.7c7.5-13.4,18.5-20.7,29.2-20.7c5.7,0,9,0.9,12.1,2.2l-4.8,23.3
		c-3.5-1.1-6.4-1.7-10.6-1.7c-8.1,0-17.8,5.3-23.7,20.2v61.2h-26.8V747.6z"/>
	<path class="st0" d="M2348.2,811.8v-64.2h27v60.7c0,16,4.4,21.5,14.3,21.5c8.4,0,13.9-3.7,20.9-12.8v-69.3h27v102.7h-22l-2-14.7
		h-0.7c-8.8,10.5-18.7,17.2-32.8,17.2C2357.7,852.9,2348.2,837.5,2348.2,811.8z"/>
	<path class="st0" d="M2459.7,799.2c0-34.3,24.6-54.1,52.4-54.1c12.7,0,22.4,5,29.9,11.4l-12.8,17.4c-5.1-4.4-9.9-6.8-15.8-6.8
		c-15.6,0-26.2,12.7-26.2,32.1c0,19.3,10.6,31.7,25.5,31.7c7.3,0,14.3-3.5,20-8.3l10.6,17.8c-9.7,8.6-22.2,12.5-33.6,12.5
		C2481.3,852.9,2459.7,833.1,2459.7,799.2z"/>
	<path class="st0" d="M2564.4,814.4v-45.5h-14.5v-20l15.8-1.3l3.1-27.5h22.6v27.5h25.3v21.3h-25.3v45.5c0,11.7,4.8,17.2,13.9,17.2
		c3.3,0,7.3-1.1,10.1-2.2l4.4,19.6c-5.5,1.8-12.7,3.9-21.6,3.9C2573.8,852.9,2564.4,837.5,2564.4,814.4z"/>
	<path class="st0" d="M2635,716.5c0-8.8,6.8-14.7,16.1-14.7c9.2,0,16,5.9,16,14.7c0,8.4-6.8,14.7-16,14.7
		C2641.8,731.1,2635,724.9,2635,716.5z M2637.6,747.6h26.8v102.7h-26.8V747.6z"/>
	<path class="st0" d="M2686.9,799.2c0-34.3,23.7-54.1,49.3-54.1c25.7,0,49.3,19.8,49.3,54.1c0,33.9-23.7,53.7-49.3,53.7
		C2710.6,852.9,2686.9,833.1,2686.9,799.2z M2758.1,799.2c0-19.4-7.9-32.1-21.8-32.1c-13.9,0-21.8,12.7-21.8,32.1
		c0,19.3,7.9,31.7,21.8,31.7C2750.2,830.9,2758.1,818.4,2758.1,799.2z"/>
	<path class="st0" d="M2808.1,747.6h22l1.8,13.6h0.7c9-8.8,19.4-16.1,33.4-16.1c22.2,0,31.7,15.4,31.7,41.3v64h-27v-60.7
		c0-15.8-4.4-21.5-14.5-21.5c-8.4,0-13.8,4-21.5,11.6v70.6h-26.8V747.6z"/>
	<path class="st0" d="M2962.7,783c0-44.7,28.8-71,63.1-71c17.2,0,31,8.3,39.8,17.4l-14.3,17.2c-6.8-6.6-14.7-11.4-24.9-11.4
		c-20.5,0-35.9,17.6-35.9,46.8c0,29.5,13.9,47.3,35.4,47.3c11.6,0,20.7-5.5,28.1-13.4l14.3,16.9c-11.2,13-25.7,20-43.3,20
		C2990.6,852.9,2962.7,828.3,2962.7,783z"/>
	<path class="st0" d="M3081.4,799.2c0-34.3,23.7-54.1,49.3-54.1c25.7,0,49.3,19.8,49.3,54.1c0,33.9-23.7,53.7-49.3,53.7
		C3105,852.9,3081.4,833.1,3081.4,799.2z M3152.5,799.2c0-19.4-7.9-32.1-21.8-32.1c-13.9,0-21.8,12.7-21.8,32.1
		c0,19.3,7.9,31.7,21.8,31.7C3144.6,830.9,3152.5,818.4,3152.5,799.2z"/>
	<path class="st0" d="M3198.9,835.3c0-9.9,7.2-17.6,16.7-17.6c9.7,0,16.9,7.7,16.9,17.6s-7.2,17.6-16.9,17.6
		C3206.1,852.9,3198.9,845.2,3198.9,835.3z"/>
</g>
</svg>
