<?xml version="1.0" encoding="utf-8"?>
<!-- Generator: Adobe Illustrator 25.2.3, SVG Export Plug-In . SVG Version: 6.00 Build 0)  -->
<svg version="1.1" id="HD_logo.svg" xmlns="http://www.w3.org/2000/svg" xmlns:xlink="http://www.w3.org/1999/xlink" x="0px"
	 y="0px" viewBox="0 0 40 40" style="enable-background:new 0 0 40 40;" xml:space="preserve">
<style type="text/css">
	.st0{clip-path:url(#SVGID_2_);fill:#FFFFFF;}
</style>
<g>
	<g>
		<defs>
			<rect id="SVGID_1_" y="1.1" width="40" height="37.7"/>
		</defs>
		<clipPath id="SVGID_2_">
			<use xlink:href="#SVGID_1_"  style="overflow:visible;"/>
		</clipPath>
		<path class="st0" d="M40,20c0,3.7,0,7.4,0,11.1c0,0.7-0.2,1.3-0.7,1.8c-1.7,1.7-3.5,3.5-5.2,5.2c-0.5,0.5-1.1,0.8-1.9,0.8
			c-2.7,0-5.5,0-8.2,0c-0.7,0-0.8-0.1-0.8-0.8c0-0.6,0-1.1,0-1.7c0-0.7,0.1-0.8,0.8-0.8c0.3,0,0.6,0,1,0c0.6,0,0.7-0.1,0.7-0.7
			c0-3.4,0-6.8,0-10.2c0-0.8,0-1.6,0-2.4c0-0.5-0.2-0.6-0.6-0.6c-3.3,0-6.7,0-10,0c-0.5,0-0.7,0.3-0.7,0.7c0,4.2,0,8.4,0,12.6
			c0,0.5,0.2,0.7,0.7,0.7c0.4,0,0.8,0,1.2,0c0.4,0,0.7,0.2,0.7,0.6c0,0.7,0,1.3,0,2c0,0.4-0.2,0.6-0.7,0.6c-2.9,0-5.8,0-8.7,0
			c-0.5,0-1.1-0.3-1.4-0.6c-1.8-1.8-3.6-3.6-5.4-5.4c-0.4-0.4-0.6-1-0.6-1.6C0,25.1,0,19,0,12.9c0-1.4,0-2.7,0-4.1
			c0-0.6,0.2-1.1,0.6-1.6c1.8-1.8,3.6-3.7,5.5-5.5C6.5,1.3,7,1.1,7.6,1.1c2.8,0,5.7,0,8.5,0c0.6,0,0.7,0.1,0.7,0.7s0,1.2,0,1.7
			c0,0.6-0.2,0.8-0.8,0.8c-0.3,0-0.6,0-1,0c-0.6,0-0.7,0.1-0.7,0.7c0,2.1,0,4.1,0,6.2s0,4.1,0,6.2c0,0.7,0.1,0.8,0.8,0.8
			c3.2,0,6.5,0,9.7,0c0.7,0,0.8-0.1,0.8-0.8c0-4.1,0-8.3,0-12.4c0-0.7-0.1-0.7-0.7-0.7c-0.4,0-0.7,0-1.1,0s-0.7-0.2-0.6-0.6
			c0-0.7,0-1.3,0-2c0-0.4,0.2-0.6,0.6-0.6c2.9,0,5.9,0,8.8,0c0.4,0,1,0.3,1.3,0.6c1.9,1.8,3.7,3.7,5.6,5.6c0.4,0.5,0.5,1,0.5,1.5
			C40,12.6,40,16.3,40,20 M28.9,20c0,4.9,0,9.9,0,14.8c0,0.7,0.1,0.8,0.8,0.8c0.6,0,1.2,0,1.7,0c0.4,0,0.7-0.1,0.9-0.4
			c1.3-1.3,2.7-2.7,4-4c0.2-0.2,0.4-0.6,0.4-1c0-6.8,0-13.6,0-20.4c0-0.4-0.1-0.7-0.4-1C35.4,7.9,34.4,7,33.6,6
			c-1-1.3-2.3-1.9-3.9-1.6c-0.7,0.1-0.8,0.1-0.8,0.8C28.9,10.1,28.9,15.1,28.9,20 M3.3,20c0,3.4,0,6.9,0,10.3c0,0.3,0.1,0.6,0.3,0.7
			c1.4,1.4,2.8,2.8,4.2,4.2c0.1,0.1,0.3,0.2,0.5,0.2c0.8,0,1.5,0,2.3,0c0.4,0,0.5-0.2,0.5-0.5c0-0.2,0-0.3,0-0.5
			c0-8.9,0-17.8,0-26.8c0-0.9,0-1.9,0-2.8c0-0.4-0.2-0.6-0.6-0.6c-0.7,0-1.4,0-2.1,0c-0.2,0-0.5,0.1-0.7,0.3C6.3,6.1,5,7.4,3.6,8.8
			C3.4,9,3.3,9.3,3.3,9.7C3.3,13.1,3.3,16.6,3.3,20"/>
	</g>
</g>
</svg>
