<?xml version="1.0" encoding="utf-8"?>
<!-- Generator: Adobe Illustrator 25.2.3, SVG Export Plug-In . SVG Version: 6.00 Build 0)  -->
<svg version="1.1" id="HD_logo_square.svg" xmlns="http://www.w3.org/2000/svg" xmlns:xlink="http://www.w3.org/1999/xlink" x="0px"
	 y="0px" viewBox="0 0 128 131" style="enable-background:new 0 0 128 131;" xml:space="preserve">
<style type="text/css">
	.st0{clip-path:url(#SVGID_2_);enable-background:new    ;}
	.st1{enable-background:new    ;}
</style>
<g>
	<defs>
		<rect id="SVGID_1_" x="19.5" y="0.1" width="89" height="83"/>
	</defs>
	<clipPath id="SVGID_2_">
		<use xlink:href="#SVGID_1_"  style="overflow:visible;"/>
	</clipPath>
	<path class="st0" d="M108.5,41.7c0,8.1,0,16.2,0,24.4c0,1.6-0.5,2.8-1.6,3.9c-3.9,3.8-7.7,7.6-11.5,11.5c-1.2,1.2-2.5,1.7-4.2,1.7
		c-6.1,0-12.2,0-18.2,0c-1.7,0-1.8-0.1-1.8-1.8c0-1.2,0-2.5,0-3.7c0-1.5,0.2-1.7,1.7-1.7c0.7,0,1.4,0,2.1,0c1.4,0,1.6-0.2,1.6-1.6
		c0-7.5,0-14.9,0-22.4c0-1.8,0-3.6,0-5.4c0-1-0.4-1.4-1.4-1.4c-7.4,0-14.8,0-22.2,0c-1.2,0-1.5,0.6-1.5,1.6c0,9.2,0,18.4,0,27.6
		c0,1,0.4,1.5,1.5,1.5c0.9,0,1.7,0,2.6,0c1,0,1.5,0.4,1.5,1.4c0,1.5,0,3,0,4.4c0,0.9-0.5,1.4-1.5,1.4c-6.4,0-12.9,0.1-19.3-0.1
		c-1.1,0-2.4-0.6-3.1-1.3c-4.1-3.9-8.1-7.9-12.1-11.9c-1-1-1.4-2.2-1.4-3.6c0-13.4,0-26.9,0-40.3c0-3,0-6,0-9c0-1.4,0.4-2.5,1.4-3.5
		c4-4,8.1-8,12.1-12c0.9-0.9,2-1.3,3.3-1.3c6.3,0,12.6,0,19,0c1.4,0,1.6,0.3,1.7,1.6c0,1.3,0,2.6,0,3.8c0,1.3-0.4,1.7-1.8,1.7
		c-0.7,0-1.4,0-2.1,0c-1.4,0-1.6,0.2-1.6,1.6c0,4.5,0,9.1,0,13.6c0,4.5,0,9.1,0,13.6c0,1.6,0.2,1.8,1.8,1.8c7.2,0,14.4,0,21.7,0
		c1.5,0,1.7-0.2,1.7-1.7c0-9.1,0-18.3,0-27.4c0-1.5-0.1-1.6-1.6-1.6c-0.8,0-1.6,0-2.4,0c-0.9,0-1.5-0.4-1.4-1.4c0-1.5,0-3,0-4.4
		c0-0.9,0.3-1.4,1.3-1.4c6.6,0,13.1,0,19.7,0.1c1,0,2.2,0.6,2.9,1.3c4.2,4,8.3,8.2,12.4,12.3c0.9,0.9,1.1,2.1,1.1,3.3
		C108.5,25.3,108.5,33.5,108.5,41.7 M83.8,41.6c0,10.9,0,21.7,0,32.6c0,1.5,0.2,1.7,1.7,1.7c1.3,0,2.6,0,3.9,0
		c0.9,0,1.5-0.2,2.1-0.8c2.9-3,5.9-5.9,8.8-8.9c0.5-0.5,0.9-1.4,0.9-2.1c0.1-15,0-30,0.1-45c0-0.9-0.3-1.6-1-2.3c-2-2-4.3-3.8-6-6
		c-2.3-2.9-5.1-4.1-8.7-3.5c-1.6,0.2-1.7,0.1-1.7,1.8C83.8,19.9,83.8,30.7,83.8,41.6 M26.8,41.6c0,7.6,0,15.1,0,22.7
		c0,0.6,0.2,1.2,0.6,1.6c3.1,3.1,6.2,6.2,9.4,9.3c0.3,0.3,0.7,0.5,1.1,0.6c1.7,0.1,3.4,0,5.1,0c0.8,0,1.1-0.4,1.1-1.2
		c0-0.3,0-0.7,0-1c0-19.6,0-39.3,0-58.9c0-2.1,0-4.1,0-6.2c0-0.9-0.4-1.3-1.4-1.3c-1.5,0-3.1,0-4.6,0c-0.5,0-1.1,0.3-1.5,0.6
		c-3.1,3-6,6-9.1,9c-0.6,0.6-0.8,1.1-0.8,1.9C26.8,26.5,26.8,34.1,26.8,41.6"/>
</g>
<g class="st1">
	<path d="M10.3,106.6H5.1l-0.2-0.9h5.4l-0.4-3.3l4.4,0.3c0,0.3-0.2,0.7-0.8,0.8l0.3,2.2h0.9l1.6-2.2c0,0,1.8,1.6,2.9,2.6
		c-0.1,0.3-0.4,0.5-0.8,0.5h-4.5l0.3,2c-0.5,0.7-1.8,1-3.4,0.9L10.3,106.6z M29.5,118.5c0,0,1.8,1.4,3,2.4c-0.1,0.3-0.4,0.5-0.8,0.5
		H20.5v3.3H26l1.9-2.3c0,0,2.1,1.6,3.4,2.7c-0.1,0.3-0.4,0.5-0.8,0.5h-9.9v3.9c0,0.2-1,0.9-2.9,0.9h-0.6v-4.8H7.3l-0.2-0.8h10v-3.3
		H6l-0.3-0.8h11.3v-4.4c-0.1,0-0.2,0.1-0.4,0.1h-3.9v2.9c0,0.2-1.2,0.7-2.1,0.7h-0.5v-3.5H5.7l-0.2-0.9h4.7V112l3.5,0.3
		c-0.1,0.3-0.2,0.6-0.9,0.7v2.4h0.7l1.4-1.9c0,0,1.2,1,2.2,1.9v-4.3H6.8l-0.2-0.8h20.3l1.7-2c0,0,1.9,1.4,3.1,2.4
		c-0.1,0.3-0.4,0.5-0.8,0.5H20.5v9.5h7.3L29.5,118.5z M30.2,103.5c0,0,1.8,1.6,2.9,2.6c-0.1,0.3-0.4,0.5-0.8,0.5h-6.2l-0.4,2.3
		c-0.6,0.5-2,0.7-3.4,0.4l0.4-2.7h-2.8l-0.2-0.9h3.2l0.5-3.3l4.3,0.7c-0.1,0.4-0.3,0.7-1.2,0.8l-0.3,1.8h2.3L30.2,103.5z
		 M30.1,113.4c0,0,1.7,1.4,2.6,2.4c-0.1,0.3-0.4,0.5-0.7,0.5h-5.3v2.6c0,0.2-1.2,0.7-2.1,0.7h-0.5v-3.2h-2.7l-0.2-0.9h2.9V112
		l3.5,0.3c-0.1,0.3-0.2,0.6-0.9,0.7v2.4h1.9L30.1,113.4z"/>
	<path d="M40.4,115c-1.6,1-3.5,1.9-5.7,2.5l-0.2-0.4c2.6-1.4,4.9-3.4,6.7-5.6c-0.6,0.1-1.3,0.1-2.1-0.5c-0.1-1.4-1-2.9-2-3.8
		l0.2-0.2c3.7,0.1,5.1,1.3,5.2,2.5c0.9-1.4,1.6-2.8,2.1-4.3h-6.4l-0.3-0.9h6.6l1.9-1.9l3.2,2.8c-0.2,0.3-0.5,0.4-1.2,0.5
		c-1,2.3-2.5,4.4-4.4,6.3h5.4l1.7-2.2c0,0,1.9,1.5,3.1,2.6c-0.1,0.3-0.4,0.5-0.8,0.5h-9.4l-0.2-0.8c-0.9,0.8-1.8,1.6-2.9,2.3
		l3.1,1.2h9.4l1.6-1.7l3.4,2.5c-0.2,0.2-0.5,0.5-1.1,0.6v5.1c0,0.2-1.9,0.8-3,0.8h-0.6v-1.3h-9.9v0.7c0,0.1-0.5,0.4-1.1,0.7
		c7.3,1.6,3.9,7.3,0.9,4.8c0-1.6-0.7-3.4-1.6-4.6c-0.4,0.1-0.8,0.2-1.3,0.2h-0.5V115z M59.1,125.9c0,0,2.3,1.8,3.7,3.1
		c-0.1,0.3-0.4,0.5-0.9,0.5H35.8l-0.2-0.8h15c0.6-1.7,1.2-4.2,1.6-5.8l4.6,1.4c-0.1,0.4-0.5,0.6-1.1,0.5c-1.1,1.1-2.8,2.6-4.3,3.9
		h5.8L59.1,125.9z M43.9,116.6v4.2h9.9v-4.2H43.9z M63.1,108.9c-0.2,0.3-0.4,0.4-1.1,0.2c-1.2,0.6-2.9,1.3-4.6,1.9
		c1.9,1.3,4.1,2.4,6.3,3.1l-0.1,0.4c-1.5,0.2-2.5,1.2-3.1,2.9c-5.2-3.1-8.8-7.7-10.5-15.1l0.4-0.2c0.7,2,1.7,3.7,2.9,5.2
		c1.1-1.4,2.3-3.1,2.9-4.2l3.5,2.3c-0.2,0.3-0.5,0.4-1.1,0.3c-1.2,0.8-3,1.6-4.7,2.3c0.8,0.9,1.7,1.7,2.7,2.4
		c1.2-1.2,2.5-2.8,3.2-3.9L63.1,108.9z"/>
	<path d="M75.9,115c-0.2,0.3-0.5,0.4-1.1,0.5c-0.5,3.1-1.2,6-2.7,8.6c3.3,1.8,7.7,2.2,13.9,2.2c1.6,0,5.2,0,7.1,0v0.4
		c-1.4,0.3-2,1.5-2.1,2.9h-5.2c-7,0-11.7-0.7-15-3.6c-1.4,1.7-3.3,3.3-5.9,4.5l-0.2-0.4c2.1-1.6,3.6-3.5,4.6-5.7
		c-1.4-1.8-2.5-4.3-3.3-7.5l0.3-0.2c1,2.6,2.2,4.5,3.7,5.9c0.8-2.3,1.3-4.9,1.5-7.5h-1.8l-1,1.1l-2.9-1.9c0.3-0.2,0.7-0.5,1.1-0.6
		c1.1-2,2.6-5.3,3.4-7.4h-5l-0.3-0.9h5.2l1.5-1.5l3,2.7c-0.2,0.3-0.7,0.4-1.3,0.5c-0.8,1.9-2.3,5.1-3.4,7.2h1.3l1.7-1.7L75.9,115z
		 M91,107.2c0,0,1.7,1.6,2.5,2.7c-0.1,0.3-0.4,0.5-0.8,0.5h-3.4v4.1c0,0.2-1.7,0.8-2.7,0.8h-0.5v-1h-2.7v3.1h2.9l1.7-2.2
		c0,0,1.9,1.5,3.1,2.6c-0.1,0.3-0.4,0.5-0.8,0.5h-6.8v3.1h3.6l1.9-2.4c0,0,2.2,1.6,3.5,2.8c-0.1,0.3-0.4,0.5-0.8,0.5h-8.1v2.8
		c0,0.3-1.4,0.9-2.7,0.9h-0.7v-3.7H74l-0.2-0.9h6.4v-3.1h-4.7l-0.2-0.8h5v-3.1h-4.4l-0.3-0.9h4.6v-3.1h-6.6l-0.2-0.9h6.8v-3h-4.7
		l-0.3-0.8h4.9v-3.3l4.5,0.4c-0.1,0.4-0.3,0.8-1.1,0.9v2h2.4l1.5-1.6l3.2,2.4c-0.2,0.2-0.6,0.5-1.2,0.6v2.5h0.2L91,107.2z
		 M83.5,109.5h2.7v-3h-2.7V109.5z M86.1,110.3h-2.7v3.1h2.7V110.3z"/>
	<path d="M105.3,106.1c0,0,1.7,1.4,2.8,2.3c-0.1,0.3-0.4,0.5-0.8,0.5H95.1l-0.2-0.9h8.9L105.3,106.1z M111.8,106.8
		c0,2.5-0.5,6.5-5.6,8.8c0.2,0.2,0.4,0.4,0.6,0.5c-0.1,0.3-0.4,0.5-0.8,0.5h-9.7l-0.2-0.9h6.6l1.4-1.8c0,0,0.8,0.7,1.7,1.3
		c2.5-2.6,2.9-5.9,2.9-8.5v-3.7l3.7,1.4h2.5l1.6-1.7l2.9,2.4c-0.2,0.2-0.5,0.4-1.1,0.5v4.9c0,0.3,0.1,0.4,0.5,0.4h0.8h0.8
		c0.2,0,0.5,0,0.6,0c0.2,0,0.5-0.1,0.7-0.1h0.3l0.1,0c0.7,0.4,1,0.7,1,1.3c0,1.2-1,1.9-3.9,1.9h-1.4c-2.2,0-2.5-0.6-2.5-2.6v-6.1
		h-3.4V106.8z M102.7,111.9l1.4-1.9c0,0,1.6,1.3,2.6,2.3c-0.1,0.3-0.4,0.5-0.8,0.5h-9.6l-0.2-0.9H102.7z M103,128.9v-1.6h-3.4v1.8
		c0,0.3-1.3,1-2.6,1h-0.5v-11.6l3.2,1.3h3l1.4-1.5l3.1,2.3c-0.2,0.2-0.6,0.5-1.1,0.6v7c0,0.2-1.5,0.9-2.6,0.9H103z M98.1,102.7
		c7.9,0.4,5.1,6.4,1.9,4.3c-0.2-1.5-1.2-3.1-2.1-4.1L98.1,102.7z M103,126.5v-5.9h-3.4v5.9H103z M121.3,117.1
		c-0.2,0.3-0.5,0.4-1.3,0.5c-1,2.5-2.5,4.8-4.4,6.7c2.2,1.2,4.8,2,7.5,2.6l0,0.3c-1.4,0.3-2.4,1.3-2.9,3c-2.7-1-5-2.2-6.8-4
		c-2.5,1.9-5.8,3.3-9.9,4.3l-0.2-0.4c3.5-1.4,6.4-3.2,8.6-5.6c-1.4-1.9-2.5-4.3-3.2-7.4h-1.4l-0.3-0.9h9.2l1.9-1.8L121.3,117.1z
		 M109.3,117c0.9,2.4,2.3,4.3,4.1,5.7c1.3-1.7,2.3-3.6,3-5.7H109.3z"/>
</g>
</svg>
