<?xml version="1.0" encoding="utf-8"?>
<!-- Generator: Adobe Illustrator 25.2.3, SVG Export Plug-In . SVG Version: 6.00 Build 0)  -->
<svg version="1.1" id="HD_logo.svg" xmlns="http://www.w3.org/2000/svg" xmlns:xlink="http://www.w3.org/1999/xlink" x="0px"
	 y="0px" viewBox="0 0 186 38" style="enable-background:new 0 0 186 38;" xml:space="preserve">
<style type="text/css">
	.st0{clip-path:url(#SVGID_2_);}
	.st1{fill-rule:evenodd;clip-rule:evenodd;}
</style>
<g>
	<defs>
		<rect id="SVGID_1_" x="0.6" y="0.1" width="40" height="37.7"/>
	</defs>
	<clipPath id="SVGID_2_">
		<use xlink:href="#SVGID_1_"  style="overflow:visible;"/>
	</clipPath>
	<path class="st0" d="M40.7,19c0,3.7,0,7.4,0,11.1c0,0.7-0.2,1.3-0.7,1.8c-1.7,1.7-3.5,3.5-5.2,5.2c-0.5,0.5-1.1,0.8-1.9,0.8
		c-2.7,0-5.5,0-8.2,0c-0.7,0-0.8-0.1-0.8-0.8c0-0.6,0-1.1,0-1.7c0-0.7,0.1-0.8,0.8-0.8c0.3,0,0.6,0,1,0c0.6,0,0.7-0.1,0.7-0.7
		c0-3.4,0-6.8,0-10.2c0-0.8,0-1.6,0-2.4c0-0.5-0.2-0.6-0.6-0.6c-3.3,0-6.7,0-10,0c-0.5,0-0.7,0.3-0.7,0.7c0,4.2,0,8.4,0,12.6
		c0,0.5,0.2,0.7,0.7,0.7c0.4,0,0.8,0,1.2,0c0.4,0,0.7,0.2,0.7,0.6c0,0.7,0,1.3,0,2c0,0.4-0.2,0.6-0.7,0.6c-2.9,0-5.8,0-8.7,0
		c-0.5,0-1.1-0.3-1.4-0.6c-1.8-1.8-3.6-3.6-5.4-5.4c-0.4-0.4-0.6-1-0.6-1.6c0-6.1,0-12.2,0-18.3c0-1.4,0-2.7,0-4.1
		c0-0.6,0.2-1.1,0.6-1.6c1.8-1.8,3.6-3.7,5.5-5.5c0.4-0.4,0.9-0.6,1.5-0.6c2.8,0,5.7,0,8.5,0c0.6,0,0.7,0.1,0.7,0.7
		c0,0.6,0,1.2,0,1.7c0,0.6-0.2,0.8-0.8,0.8c-0.3,0-0.6,0-1,0c-0.6,0-0.7,0.1-0.7,0.7c0,2.1,0,4.1,0,6.2c0,2.1,0,4.1,0,6.2
		c0,0.7,0.1,0.8,0.8,0.8c3.2,0,6.5,0,9.7,0c0.7,0,0.8-0.1,0.8-0.8c0-4.1,0-8.3,0-12.4c0-0.7-0.1-0.7-0.7-0.7c-0.4,0-0.7,0-1.1,0
		c-0.4,0-0.7-0.2-0.6-0.6c0-0.7,0-1.3,0-2c0-0.4,0.2-0.6,0.6-0.6c2.9,0,5.9,0,8.8,0c0.4,0,1,0.3,1.3,0.6c1.9,1.8,3.7,3.7,5.6,5.6
		c0.4,0.4,0.5,0.9,0.5,1.5C40.7,11.5,40.7,15.2,40.7,19 M29.6,18.9c0,4.9,0,9.9,0,14.8c0,0.7,0.1,0.8,0.8,0.8c0.6,0,1.2,0,1.7,0
		c0.4,0,0.7-0.1,0.9-0.4c1.3-1.3,2.7-2.7,4-4c0.2-0.2,0.4-0.6,0.4-1c0-6.8,0-13.6,0-20.4c0-0.4-0.1-0.7-0.4-1
		C36.1,6.8,35.1,6,34.3,5c-1-1.3-2.3-1.9-3.9-1.6c-0.7,0.1-0.8,0.1-0.8,0.8C29.6,9.1,29.6,14,29.6,18.9 M3.9,19c0,3.4,0,6.9,0,10.3
		c0,0.3,0.1,0.6,0.3,0.7c1.4,1.4,2.8,2.8,4.2,4.2c0.1,0.1,0.3,0.2,0.5,0.2c0.8,0,1.5,0,2.3,0c0.4,0,0.5-0.2,0.5-0.5
		c0-0.2,0-0.3,0-0.5c0-8.9,0-17.8,0-26.8c0-0.9,0-1.9,0-2.8c0-0.4-0.2-0.6-0.6-0.6c-0.7,0-1.4,0-2.1,0c-0.2,0-0.5,0.1-0.7,0.3
		C7,5,5.6,6.4,4.3,7.7C4,8,3.9,8.3,3.9,8.6C3.9,12.1,3.9,15.5,3.9,19"/>
</g>
<path id="華登建設" class="st1" d="M64.4,12.5c1.6,0.1,2.9-0.2,3.4-0.9l-0.3-2h4.5c0.4,0.1,0.7-0.1,0.8-0.5
	C71.8,8,70,6.5,70,6.5l-1.6,2.2h-0.9l-0.3-2.2C67.6,6.5,68,6.2,68,5.7l-4.4-0.3L64,8.7h-5.4l0.2,0.9h5.2L64.4,12.5z M81.6,23.6h-7.3
	v-9.5h10.3c0.4,0.1,0.7-0.1,0.8-0.5c-1.2-1-3.1-2.4-3.1-2.4l-1.7,2H60.4l0.2,0.8h10.3v4.3c-1-0.9-2.2-1.9-2.2-1.9l-1.4,1.9h-0.7V16
	c0.4,0,0.8-0.3,0.9-0.7L63.9,15v3.4h-4.7l0.2,0.9h4.5v3.5h0.5c1,0,2.1-0.4,2.1-0.7v-2.8h3.9c0.1,0,0.3,0,0.4-0.1v4.4H59.6l0.3,0.8
	h11v3.3h-10l0.2,0.8h9.7v4.8h0.6c1.8,0,2.8-0.7,2.8-0.9v-3.9h9.9c0.4,0.1,0.7-0.1,0.8-0.5c-1.3-1.1-3.4-2.7-3.4-2.7l-1.9,2.3h-5.5
	v-3.3h11.1c0.4,0.1,0.7-0.1,0.8-0.5c-1.1-1-3-2.4-3-2.4L81.6,23.6z M82.5,18.4h-1.9V16c0.4,0,0.8-0.3,0.9-0.7L77.9,15v3.4h-2.9
	l0.2,0.9h2.7v3.2h0.5c0.8,0,1.5-0.2,2.1-0.7v-2.6h5.3c0.3,0.1,0.7-0.2,0.8-0.5c-1-1-2.6-2.4-2.6-2.4L82.5,18.4z M82.4,8.7h-2.3
	l0.3-1.8c0.5,0.1,1-0.3,1.2-0.8l-4.3-0.7l-0.5,3.3h-3.2l0.2,0.9h2.8l-0.4,2.7c1.2,0.3,2.4,0.2,3.4-0.4l0.4-2.3h6.2
	c0.4,0.1,0.7-0.1,0.8-0.5C85.8,8,84,6.5,84,6.5L82.4,8.7z M110.6,19.6v4.2h-9.9v-4.2H110.6L110.6,19.6z M97.2,26.4h0.5
	c0.4,0,0.8-0.1,1.3-0.2c1,1.3,1.5,2.9,1.6,4.6c3,2.5,6.4-3.2-0.9-4.8c0.4-0.1,0.8-0.3,1.1-0.7v-0.7h9.9v1.3h0.6c1.1,0,2.1-0.3,3-0.8
	v-5.1c0.4-0.1,0.8-0.3,1.1-0.6l-3.4-2.5l-1.6,1.7h-9.4l-3.1-1.2c1-0.7,2-1.4,2.9-2.3L101,16h9.4c0.4,0.1,0.7-0.1,0.8-0.5
	c-1.2-1.1-3.1-2.6-3.1-2.6l-1.7,2.2h-5.4c1.9-1.8,3.3-3.9,4.4-6.3c0.5,0,0.9-0.1,1.2-0.5l-3.2-2.8l-1.9,1.9h-6.6L95,8.3h6.4
	c-0.5,1.5-1.2,2.9-2.1,4.3c-0.1-1.2-1.6-2.4-5.2-2.5l-0.2,0.2c1.1,1,1.8,2.3,2,3.8c0.6,0.5,1.3,0.6,2.1,0.5
	c-1.8,2.3-4.1,4.2-6.7,5.6l0.2,0.4c2-0.6,3.9-1.5,5.7-2.6L97.2,26.4L97.2,26.4z M113.8,31.7H108c1.5-1.2,3.2-2.8,4.3-3.9
	c0.5,0.1,0.9-0.1,1.1-0.5l-4.6-1.4c-0.4,1.7-1,4.1-1.6,5.8h-15l0.2,0.8h26.1c0.4,0.1,0.7-0.1,0.9-0.5c-1.4-1.2-3.7-3.1-3.7-3.1
	L113.8,31.7z M116.4,9.5c-0.9,1.4-2,2.7-3.2,3.9c-1-0.7-1.9-1.5-2.7-2.4c1.6-0.6,3.2-1.4,4.7-2.3c0.4,0.2,0.9,0.1,1.1-0.3l-3.5-2.3
	c-0.8,1.5-1.8,2.9-2.9,4.2c-1.3-1.5-2.3-3.3-2.9-5.2l-0.4,0.2c1.7,7.4,5.3,12,10.5,15.1c0.4-1.5,1.6-2.6,3.1-2.9l0.1-0.4
	c-2.2-0.8-4.3-1.8-6.3-3.2c1.6-0.5,3.1-1.1,4.6-1.9c0.4,0.2,0.9,0.1,1.1-0.2L116.4,9.5z M132.7,15.5l-1.6,1.7h-1.3
	c1.1-2.1,2.6-5.3,3.4-7.2c0.5,0,0.9-0.2,1.3-0.5l-3-2.7l-1.5,1.5h-5.2l0.3,0.9h5c-1,2.5-2.1,5-3.4,7.4c-0.4,0.1-0.8,0.4-1.1,0.6
	l2.9,1.9l1.1-1.1h1.8c-0.2,2.6-0.7,5.1-1.5,7.5c-1.7-1.6-3-3.7-3.7-5.9l-0.3,0.2c0.6,2.7,1.7,5.2,3.3,7.5c-1,2.3-2.6,4.2-4.6,5.7
	l0.2,0.4c2.3-1,4.3-2.5,5.9-4.5c3.3,2.9,8,3.6,15,3.6h5.2c-0.1-1.4,0.8-2.6,2.1-2.9v-0.4c-1.9,0-5.5,0-7.1,0
	c-6.2,0-10.7-0.4-13.9-2.2c1.4-2.7,2.4-5.6,2.7-8.6c0.4,0,0.9-0.2,1.1-0.5L132.7,15.5z M145.9,16.4h-2.7v-3.1h2.7V16.4z M143.2,9.5
	h2.7v3h-2.7V9.5z M149.4,12.5h-0.2V10c0.4-0.1,0.8-0.3,1.2-0.6L147.1,7l-1.5,1.6h-2.4v-2c0.5,0.1,1-0.3,1.1-0.9l-4.5-0.4v3.3h-4.9
	l0.3,0.8h4.7v3h-6.8l0.2,0.9h6.6v3.1h-4.7l0.3,0.9h4.4v3.1h-5l0.2,0.8h4.7v3.1h-6.4l0.2,0.9h6.1v3.7h0.7c1.3,0,2.7-0.6,2.7-0.9v-2.8
	h8.1c0.4,0.1,0.7-0.1,0.8-0.5c-1.3-1.2-3.5-2.8-3.5-2.8l-1.9,2.4h-3.6v-3.1h6.8c0.4,0.1,0.7-0.1,0.8-0.5c-1.1-1.1-3.1-2.6-3.1-2.6
	l-1.7,2.2h-2.9v-3.1h2.7v1h0.5c1,0,1.9-0.3,2.7-0.8v-4.1h3.4c0.3,0,0.7-0.2,0.8-0.5c-0.8-1-2.5-2.7-2.5-2.7L149.4,12.5z M160.7,5.9
	c1.1,1.2,1.8,2.6,2.1,4.1c3.2,2.1,6-3.9-1.9-4.3L160.7,5.9z M166.6,11.1h-8.9l0.2,0.9H170c0.4,0.1,0.7-0.1,0.8-0.5
	c-1.1-1-2.8-2.3-2.8-2.3L166.6,11.1z M158.9,14.9l0.2,0.9h9.6c0.4,0.1,0.7-0.1,0.8-0.5c-1-1-2.6-2.3-2.6-2.3l-1.4,1.9H158.9
	L158.9,14.9z M174.6,8.3h3.4v6.1c0,2,0.3,2.6,2.5,2.6h1.4c2.9,0,3.9-0.7,3.9-1.9c0-0.6-0.4-1.1-1-1.3l-0.1,0h-0.3
	c-0.2,0-0.5,0.1-0.7,0.1c-0.1,0-0.4,0-0.6,0h-1.6c-0.4,0-0.5-0.1-0.5-0.4v-5c0.4,0,0.8-0.2,1.1-0.5l-2.9-2.4l-1.6,1.7h-2.6l-3.7-1.3
	v3.7c0,2.6-0.3,5.9-2.8,8.5c-0.8-0.7-1.7-1.3-1.7-1.3l-1.4,1.8h-6.6l0.2,0.9h9.7c0.4,0.1,0.7-0.1,0.8-0.5c-0.2-0.2-0.4-0.4-0.6-0.5
	c3.6-1.5,5.8-5,5.6-8.8L174.6,8.3L174.6,8.3z M162.4,29.5v-5.9h3.4v5.9H162.4z M166.3,31.9c0.9,0,1.8-0.3,2.6-0.9v-7
	c0.4-0.1,0.8-0.3,1.1-0.6l-3.1-2.3l-1.4,1.5h-3l-3.2-1.3v11.6h0.4c1.3,0,2.6-0.7,2.6-1v-1.8h3.4v1.6
	C165.8,31.9,166.3,31.9,166.3,31.9z M179.2,20c-0.7,2.1-1.7,4-3,5.7c-1.9-1.5-3.3-3.5-4.1-5.7H179.2z M181,17.3l-1.9,1.8h-9.2
	l0.3,0.9h1.4c0.5,2.7,1.6,5.2,3.2,7.4c-2.4,2.5-5.3,4.4-8.6,5.6l0.2,0.4c3.6-0.7,6.9-2.2,9.9-4.3c2,1.8,4.3,3.2,6.8,4
	c0.3-1.5,1.4-2.6,2.9-3l0-0.3c-2.6-0.5-5.2-1.3-7.5-2.6c1.9-1.9,3.4-4.2,4.4-6.7c0.5,0.1,0.9-0.1,1.3-0.4L181,17.3z"/>
</svg>
